<?xml version="1.0" encoding="UTF-8"?>
<svg width="128pt" height="128pt" version="1.1" viewBox="0 0 128 128" xmlns="http://www.w3.org/2000/svg">
 <g>
  <path d="m104.62 20.672c11.34 10.812 18.41 26.07 18.41 42.98 0 32.793-26.586 59.375-59.375 59.375 16.395 0 29.688-13.293 29.688-29.688 0-16.395-13.289-29.684-29.684-29.688h-0.003906c-16.398 0-29.688-13.293-29.688-29.688-0.003906-16.398 13.289-29.691 29.684-29.691-32.793 0-59.379 26.586-59.379 59.379 0 32.793 26.586 59.375 59.379 59.375 32.793 0 59.379-26.586 59.379-59.375 0-16.91-7.0703-32.164-18.41-42.98zm-48.391 72.668c0-4.0977 3.3242-7.4219 7.4219-7.4219s7.4219 3.3242 7.4219 7.4219c0 4.1016-3.3242 7.4219-7.4219 7.4219-4.0977 0.003906-7.4219-3.3203-7.4219-7.4219z"/>
  <path d="m71.074 33.965c0 4.0977-3.3242 7.4219-7.4219 7.4219s-7.4219-3.3242-7.4219-7.4219 3.3242-7.4219 7.4219-7.4219 7.4219 3.3242 7.4219 7.4219"/>
  <path d="m63.652 4.2734c15.887 0 30.309 6.2383 40.965 16.398 11.344 10.812 18.41 26.07 18.41 42.98 0 32.793-26.586 59.375-59.379 59.375-32.793 0-59.379-26.586-59.379-59.375 0.003907-32.793 26.59-59.379 59.383-59.379h0.015625 0.011719 0.042968c0.10156 0.003906 0.19922 0.003906 0.30078 0.007812h0.039062-0.039062c-0.10156-0.003906-0.19922-0.007812-0.30078-0.007812h-0.058594-0.011718m0-4.2734c-8.5898 0-16.93 1.6836-24.777 5.0039-7.582 3.207-14.387 7.7969-20.23 13.641s-10.434 12.648-13.641 20.234c-3.3203 7.8477-5.0039 16.184-5.0039 24.773 0 8.5938 1.6836 16.926 5.0039 24.777 3.207 7.5859 7.7969 14.387 13.641 20.234 5.8438 5.8438 12.652 10.434 20.23 13.641 7.8516 3.3203 16.188 5.0039 24.777 5.0039s16.926-1.6836 24.777-5.0039c7.582-3.207 14.387-7.7969 20.23-13.641 5.8477-5.8438 10.434-12.648 13.641-20.234 3.3203-7.8477 5.0039-16.184 5.0039-24.777 0-8.8594-1.7852-17.434-5.3125-25.492-3.4023-7.7773-8.2539-14.703-14.426-20.586-11.887-11.332-27.48-17.574-43.914-17.574z"/>
 </g>
</svg>
